<?xml version="1.0" encoding="UTF-8" standalone="no"?>
<!-- Generator: Adobe Illustrator 23.0.3, SVG Export Plug-In . SVG Version: 6.00 Build 0)  -->

<svg
   version="1.0"
   id="Layer_1"
   x="0px"
   y="0px"
   viewBox="0 0 16 16"
   enable-background="new 0 0 16 16"
   xml:space="preserve"
   sodipodi:docname="seam_blocker.svg"
   inkscape:version="1.3 (1:1.3+202307231459+0e150ed6c4)"
   xmlns:inkscape="http://www.inkscape.org/namespaces/inkscape"
   xmlns:sodipodi="http://sodipodi.sourceforge.net/DTD/sodipodi-0.dtd"
   xmlns="http://www.w3.org/2000/svg"
   xmlns:svg="http://www.w3.org/2000/svg"><defs
   id="defs10" /><sodipodi:namedview
   id="namedview10"
   pagecolor="#505050"
   bordercolor="#eeeeee"
   borderopacity="1"
   inkscape:showpageshadow="0"
   inkscape:pageopacity="0"
   inkscape:pagecheckerboard="0"
   inkscape:deskcolor="#d1d1d1"
   inkscape:zoom="45.254834"
   inkscape:cx="3.7123106"
   inkscape:cy="7.5793008"
   inkscape:window-width="2512"
   inkscape:window-height="1376"
   inkscape:window-x="1968"
   inkscape:window-y="268"
   inkscape:window-maximized="1"
   inkscape:current-layer="g2" />&#10;<g
   id="support_x5F_blocker">&#10;	&#10;	<g
   id="g2"
   transform="translate(-15.237607,-0.17)"><path
   style="color:#000000;fill:#ffffff;stroke-linecap:round;stroke-linejoin:round;-inkscape-stroke:none"
   d="m 17.119141,4.1894531 c -0.79447,0 -1.447266,0.6527965 -1.447266,1.4472656 v 5.0664063 c 0,0.794469 0.652796,1.447266 1.447266,1.447266 h 12.236328 c 0.794469,0 1.447265,-0.652797 1.447265,-1.447266 V 5.6367187 c 0,-0.7944691 -0.652796,-1.4472656 -1.447265,-1.4472656 z m 0,0.8964844 h 12.236328 c 0.313529,0 0.550781,0.2372515 0.550781,0.5507812 v 5.0664063 c 0,0.31353 -0.237252,0.550781 -0.550781,0.550781 H 17.119141 c -0.31353,0 -0.550782,-0.237251 -0.550782,-0.550781 V 5.6367187 c 0,-0.3135297 0.237252,-0.5507812 0.550782,-0.5507812 z"
   id="rect11" />&#10;		&#10;	<path
   style="color:#000000;fill:#ed6b21;stroke-linecap:round;-inkscape-stroke:none"
   d="M 16.255859,0.80078125 A 0.34999999,0.34999999 0 0 0 15.90625,1.1503906 0.34999999,0.34999999 0 0 0 16.255859,1.5 h 3.578125 a 0.34999999,0.34999999 0 0 0 0.34961,-0.3496094 0.34999999,0.34999999 0 0 0 -0.34961,-0.34960935 z"
   id="path11" /><path
   style="color:#000000;fill:#ed6b21;stroke-linecap:round;-inkscape-stroke:none"
   d="M 18.976562,1.953125 A 0.34999999,0.34999999 0 0 0 18.625,2.3046875 0.34999999,0.34999999 0 0 0 18.976562,2.6542969 h 3.578125 a 0.34999999,0.34999999 0 0 0 0.34961,-0.3496094 0.34999999,0.34999999 0 0 0 -0.34961,-0.3515625 z"
   id="path11-6" /><path
   style="color:#000000;fill:#ed6b21;stroke-linecap:round;-inkscape-stroke:none"
   d="m 21.695312,3.0722656 a 0.34999999,0.34999999 0 0 0 -0.349609,0.3496094 0.34999999,0.34999999 0 0 0 0.349609,0.3496094 h 3.578125 A 0.34999999,0.34999999 0 0 0 25.625,3.421875 0.34999999,0.34999999 0 0 0 25.273437,3.0722656 Z"
   id="path11-5" /><path
   style="color:#000000;fill:#ed6b21;stroke-linecap:round;-inkscape-stroke:none"
   d="m 21.005859,12.568359 a 0.34999999,0.34999999 0 0 0 -0.349609,0.34961 0.34999999,0.34999999 0 0 0 0.349609,0.349609 h 3.578125 a 0.34999999,0.34999999 0 0 0 0.34961,-0.349609 0.34999999,0.34999999 0 0 0 -0.34961,-0.34961 z"
   id="path11-56" /><path
   style="color:#000000;fill:#ed6b21;stroke-linecap:round;-inkscape-stroke:none"
   d="m 23.726562,13.722656 a 0.34999999,0.34999999 0 0 0 -0.349609,0.34961 0.34999999,0.34999999 0 0 0 0.349609,0.349609 h 3.578125 a 0.34999999,0.34999999 0 0 0 0.34961,-0.349609 0.34999999,0.34999999 0 0 0 -0.34961,-0.34961 z"
   id="path11-6-2" /><path
   style="color:#000000;fill:#ed6b21;stroke-linecap:round;-inkscape-stroke:none"
   d="m 26.447266,14.839844 a 0.34999999,0.34999999 0 0 0 -0.34961,0.349609 0.34999999,0.34999999 0 0 0 0.34961,0.34961 h 3.578125 A 0.34999999,0.34999999 0 0 0 30.375,15.189453 0.34999999,0.34999999 0 0 0 30.025391,14.839844 Z"
   id="path11-5-9" /></g>&#10;	&#10;	&#10;	&#10;	&#10;	&#10;	&#10;	&#10;	&#10;</g>&#10;</svg>
